<svg width="100" height="100" viewBox="0 0 100 100" fill="none" xmlns="http://www.w3.org/2000/svg">
<mask id="mask0_547_35672" style="mask-type:alpha" maskUnits="userSpaceOnUse" x="0" y="0" width="100" height="100">
<rect width="100" height="100" rx="50" fill="#13C2C2"/>
</mask>
<g mask="url(#mask0_547_35672)">
<rect width="100" height="100" fill="#13C2C2"/>
<mask id="mask1_547_35672" style="mask-type:alpha" maskUnits="userSpaceOnUse" x="4" y="4" width="92" height="92">
<circle cx="50" cy="50.0001" r="46" fill="#D9D9D9"/>
</mask>
<g mask="url(#mask1_547_35672)">
<path d="M3.05176e-05 24.375L0.405151 100H100.249L99.8438 24.375C88.4375 24.375 79.5313 37.8527 74.6875 43.8826C69.8438 49.9125 59.375 65.8523 48.2813 65.8523C37.1875 65.8523 23.6811 45.3977 22.8125 44.072C14.375 31.1932 5.31253 24.9432 3.05176e-05 24.375Z" fill="#00203F"/>
</g>
<mask id="mask2_547_35672" style="mask-type:alpha" maskUnits="userSpaceOnUse" x="0" y="24" width="101" height="76">
<path d="M3.05176e-05 24.375L0.405151 100H100.249L99.8438 24.375C88.4375 24.375 79.5313 37.8527 74.6875 43.8826C69.8438 49.9125 59.375 65.8523 48.2813 65.8523C37.1875 65.8523 23.6811 45.3977 22.8125 44.072C14.375 31.1932 5.31253 24.9432 3.05176e-05 24.375Z" fill="#00203F"/>
</mask>
<g mask="url(#mask2_547_35672)">
<path d="M51.5625 53.7499L64.0625 46.8749L70.9314 50.7218L76.5625 53.7499L64.0625 60.6672L51.5625 53.7499Z" fill="#BFBFBF"/>
<path fill-rule="evenodd" clip-rule="evenodd" d="M64.0625 60.6672L51.5625 53.7499V68.1249L64.0625 74.9999V60.6672ZM52.8125 67.3437L56.1458 69.1666L59.4792 70.9895L62.8125 72.8124V61.4062L59.4792 59.5312L56.1458 57.6562L52.8125 55.7812V67.3437Z" fill="#434343"/>
<path d="M76.5625 53.7499V68.1249L64.0625 74.9999V60.6672L76.5625 53.7499Z" fill="#141414"/>
<path d="M52.8125 67.3437V55.7812L56.1458 57.6562V69.1666L52.8125 67.3437Z" fill="#FFC53D"/>
<path d="M59.4792 59.5312V70.9895L56.1458 69.1666V57.6562L59.4792 59.5312Z" fill="#FF7A45"/>
<path d="M62.8125 61.4062V72.8124L59.4792 70.9895V59.5312L62.8125 61.4062Z" fill="#40A9FF"/>
<path d="M53.4964 56.9503L55.5276 58.0905V63.9379L53.4964 62.8441V56.9503Z" fill="#F5F5F5"/>
<path d="M56.8016 58.8186L58.8329 59.9587V65.8061L56.8016 64.7124V58.8186Z" fill="#F5F5F5"/>
<path d="M60.1247 60.695L62.156 61.8352V67.6826L60.1247 66.5888V60.695Z" fill="#F5F5F5"/>
<path d="M23.4375 53.7499L35.9375 46.8749L42.8064 50.7218L48.4375 53.7499L35.9375 60.6672L23.4375 53.7499Z" fill="#BFBFBF"/>
<path fill-rule="evenodd" clip-rule="evenodd" d="M35.9375 60.6672L23.4375 53.7499V68.1249L35.9375 74.9999V60.6672ZM24.6875 67.3437L28.0208 69.1666L31.3542 70.9895L34.6875 72.8124V61.4062L31.3542 59.5312L28.0208 57.6562L24.6875 55.7812V67.3437Z" fill="#434343"/>
<path d="M48.4375 53.7499V68.1249L35.9375 74.9999V60.6672L48.4375 53.7499Z" fill="#141414"/>
<path d="M24.6875 67.3437V55.7812L28.0208 57.6562V69.1666L24.6875 67.3437Z" fill="#FFC53D"/>
<path d="M31.3542 59.5312V70.9895L28.0208 69.1666V57.6562L31.3542 59.5312Z" fill="#FF7A45"/>
<path d="M34.6875 61.4062V72.8124L31.3542 70.9895V59.5312L34.6875 61.4062Z" fill="#40A9FF"/>
<path d="M25.3714 56.9503L27.4026 58.0905V63.9379L25.3714 62.8441V56.9503Z" fill="#F5F5F5"/>
<path d="M28.6766 58.8186L30.7079 59.9587V65.8061L28.6766 64.7124V58.8186Z" fill="#F5F5F5"/>
<path d="M31.9997 60.695L34.031 61.8352V67.6826L31.9997 66.5888V60.695Z" fill="#F5F5F5"/>
<path d="M37.5 27.1874L50 20.3124L56.8689 24.1593L62.5 27.1874L50 34.1047L37.5 27.1874Z" fill="#BFBFBF"/>
<path fill-rule="evenodd" clip-rule="evenodd" d="M50 34.1047L37.5 27.1874V41.5624L50 48.4374V34.1047ZM38.75 40.7812L42.0833 42.6041L45.4167 44.427L48.75 46.2499V34.8437L45.4167 32.9687L42.0833 31.0937L38.75 29.2187V40.7812Z" fill="#434343"/>
<path d="M62.5 27.1874V41.5624L50 48.4374V34.1047L62.5 27.1874Z" fill="#141414"/>
<path d="M38.75 40.7812V29.2187L42.0833 31.0937V42.6041L38.75 40.7812Z" fill="#FFC53D"/>
<path d="M45.4167 32.9687V44.427L42.0833 42.6041V31.0937L45.4167 32.9687Z" fill="#FF7A45"/>
<path d="M48.75 34.8437V46.2499L45.4167 44.427V32.9687L48.75 34.8437Z" fill="#40A9FF"/>
<path d="M39.4339 30.3878L41.4651 31.528V37.3754L39.4339 36.2816V30.3878Z" fill="#F5F5F5"/>
<path d="M42.7391 32.2561L44.7704 33.3962V39.2436L42.7391 38.1499V32.2561Z" fill="#F5F5F5"/>
<path d="M46.0622 34.1325L48.0935 35.2727V41.1201L46.0622 40.0263V34.1325Z" fill="#F5F5F5"/>
</g>
<mask id="mask3_547_35672" style="mask-type:alpha" maskUnits="userSpaceOnUse" x="0" y="-1" width="101" height="101">
<path fill-rule="evenodd" clip-rule="evenodd" d="M0.0017643 24.6996C0.000589193 24.7995 0 24.8996 0 24.9998V74.9998C0 76.3025 0.0996504 77.582 0.291745 78.8311L0.405146 99.9999H100.249L100 53.536V24.9998C100 11.1926 88.8071 -0.000244141 75 -0.000244141H25C11.4015 -0.000244141 0.338821 10.857 0.0076357 24.3757C0.00509787 24.3755 0.00256091 24.3752 2.47955e-05 24.3749L0.0017643 24.6996ZM0.0017643 24.6996L0.291745 78.8311C2.1355 90.8195 12.4957 99.9998 25 99.9998H75C88.8071 99.9998 100 88.8069 100 74.9998V53.536L99.8438 24.3749C89.753 24.3749 81.6188 34.9231 76.5231 41.5312C75.8588 42.3926 75.2462 43.1871 74.6875 43.8825C74.0536 44.6717 73.3233 45.6306 72.5079 46.7013C67.0929 53.8116 57.9231 65.8522 48.2813 65.8522C37.1875 65.8522 23.6811 45.3977 22.8125 44.0719C14.3791 31.1993 5.32118 24.9491 0.0076357 24.3757C0.00499482 24.4835 0.0030363 24.5915 0.0017643 24.6996Z" fill="#13C2C2"/>
</mask>
<g mask="url(#mask3_547_35672)">
<path d="M76.5625 53.7499V68.1249L64.0625 74.9999V60.6671L76.5625 53.7499Z" fill="#873800"/>
<path d="M64.0625 46.8749L51.5625 53.7499L57.1875 56.8626L69.6875 49.9686L64.0625 46.8749Z" fill="#FFA940"/>
<path d="M64.0625 60.6671L76.5625 53.7499L70.9375 50.6561L58.4375 57.5544L64.0625 60.6671Z" fill="#FFA940"/>
<path d="M57.8125 57.2085L70.3125 50.3124L69.6875 49.9686L57.1875 56.8626L57.8125 57.2085Z" fill="#873800"/>
<path d="M70.3125 50.3124L57.8125 57.2085L58.4375 57.5544L70.9375 50.6561L70.3125 50.3124Z" fill="#873800"/>
<path fill-rule="evenodd" clip-rule="evenodd" d="M58.4375 57.5544L64.0625 60.6671V74.9999L51.5625 68.1249V53.7499L57.1875 56.8626V59.3709L58.4375 60.0644V57.5544Z" fill="#D46B08"/>
<path d="M58.4375 57.5544L57.8125 57.2085L57.1875 56.8626V59.3709L58.4375 60.0644V57.5544Z" fill="#612500"/>
<path d="M48.4375 53.7499V68.1249L35.9375 74.9999V60.6671L48.4375 53.7499Z" fill="#873800"/>
<path d="M35.9375 46.8749L23.4375 53.7499L29.0625 56.8626L41.5625 49.9686L35.9375 46.8749Z" fill="#FFA940"/>
<path d="M35.9375 60.6671L48.4375 53.7499L42.8125 50.6561L30.3125 57.5544L35.9375 60.6671Z" fill="#FFA940"/>
<path d="M29.6875 57.2085L42.1875 50.3124L41.5625 49.9686L29.0625 56.8626L29.6875 57.2085Z" fill="#873800"/>
<path d="M42.1875 50.3124L29.6875 57.2085L30.3125 57.5544L42.8125 50.6561L42.1875 50.3124Z" fill="#873800"/>
<path fill-rule="evenodd" clip-rule="evenodd" d="M30.3125 57.5544L35.9375 60.6671V74.9999L23.4375 68.1249V53.7499L29.0625 56.8626V59.3709L30.3125 60.0644V57.5544Z" fill="#D46B08"/>
<path d="M30.3125 57.5544L29.6875 57.2085L29.0625 56.8626V59.3709L30.3125 60.0644V57.5544Z" fill="#612500"/>
<path d="M62.5 27.1874V41.5624L50 48.4374V34.1046L62.5 27.1874Z" fill="#873800"/>
<path d="M50 20.3124L37.5 27.1874L43.125 30.3001L55.625 23.4061L50 20.3124Z" fill="#FFA940"/>
<path d="M50 34.1046L62.5 27.1874L56.875 24.0936L44.375 30.9919L50 34.1046Z" fill="#FFA940"/>
<path d="M43.75 30.646L56.25 23.7499L55.625 23.4061L43.125 30.3001L43.75 30.646Z" fill="#873800"/>
<path d="M56.25 23.7499L43.75 30.646L44.375 30.9919L56.875 24.0936L56.25 23.7499Z" fill="#873800"/>
<path fill-rule="evenodd" clip-rule="evenodd" d="M44.375 30.9919L50 34.1046V48.4374L37.5 41.5624V27.1874L43.125 30.3001V32.8084L44.375 33.5019V30.9919Z" fill="#D46B08"/>
<path d="M44.375 30.9919L43.75 30.646L43.125 30.3001V32.8084L44.375 33.5019V30.9919Z" fill="#612500"/>
</g>
</g>
</svg>
